<svg 
  xmlns:svg="http://www.w3.org/2000/svg" 
  xmlns:xlink="http://www.w3.org/1999/xlink" version="1.1" x="0px" y="0px" viewBox="0 0 100 100" style="enable-background:new 0 0 100 100;" xml:space="preserve">
  <g transform="translate(0,-952.36218)">
    <path d="m 94.000026,1002.3674 c -0.028,0.715 -0.3223,1.5414 -0.8125,2.0626 l -16,17.0008 c -1.0842,0.9743 -3.1632,1.3765 -4.375,0.25 -1.1936,-1.1095 -1.1581,-3.2613 0.031,-4.3752 l 11.25,-11.9381 -63.09357,0 c -1.6568,0 -3,-1.3432 -3,-3.0001 0,-1.6569 1.3432,-3.00009 3,-3.00009 l 63.09357,0 -11.25,-11.9381 c -1.0237,-1.0255 -1.2129,-3.253 -0.031,-4.3752 1.1816,-1.1221 3.3353,-0.7636 4.375,0.2501 l 16,17.00069 c 0.5475,0.5818 0.8143,1.2644 0.8125,2.0626 z" style="text-indent:0;text-transform:none;direction:ltr;block-progression:tb;baseline-shift:baseline;enable-background:accumulate;" stroke="none" marker="none" visibility="visible" display="inline" overflow="visible"/>
    <path style="text-indent:0;text-transform:none;direction:ltr;block-progression:tb;baseline-shift:baseline;enable-background:accumulate;" d="m 31.999765,1035.3928 a 2.9930859,3.0002605 0 0 1 -3.0551,2.9687 l -19.9518999,0 a 2.9930859,3.0002605 0 0 1 -2.9928,-2.9999 l 0,-65.99917 a 2.9930859,3.0002605 0 0 1 2.9928,-2.99996 l 19.9518999,0 a 2.9930859,3.0002605 0 1 1 0,5.99992 l -16.9591,0 0,59.99921 16.9591,0 a 2.9930859,3.0002605 0 0 1 3.0551,3.0312 z" stroke="none" marker="none" visibility="visible" display="inline" overflow="visible"/>
  </g>
</svg>