<svg 
  xmlns="http://www.w3.org/2000/svg" 
  xmlns:xlink="http://www.w3.org/1999/xlink" version="1.1" x="0px" y="0px" viewBox="0 0 100 100" style="enable-background:new 0 0 100 100;" xml:space="preserve">
  <g>
    <rect x="36.5" y="57.5" width="27.1" height="4"/>
    <rect x="25" y="40.5" width="8.1" height="4"/>
    <rect x="39" y="40.5" width="8.1" height="4"/>
    <rect x="53" y="40.5" width="8.1" height="4"/>
    <rect x="67" y="40.5" width="8.1" height="4"/>
    <rect x="25" y="48.5" width="8.1" height="4"/>
    <rect x="39" y="48.5" width="8.1" height="4"/>
    <rect x="53" y="48.5" width="8.1" height="4"/>
    <rect x="67" y="48.5" width="8.1" height="4"/>
    <rect x="25" y="32.5" width="8.1" height="4"/>
    <rect x="39" y="32.5" width="8.1" height="4"/>
    <rect x="53" y="32.5" width="8.1" height="4"/>
    <rect x="67" y="32.5" width="8.1" height="4"/>
    <path d="M83,25H17c-1.1,0-2,0.9-2,2v40c0,1.1,0.9,2,2,2h66c1.1,0,2-0.9,2-2V27C85,25.9,84.1,25,83,25z M81,65H19V29h62V65z"/>
  </g>
</svg>