<svg xmlns="http://www.w3.org/2000/svg" xmlns:xlink="http://www.w3.org/1999/xlink" version="1.1" x="0px" y="0px" viewBox="0 0 91 91" enable-background="new 0 0 91 91" xml:space="preserve"><g><path d="M21.591,44.087H7.62c-4.202,0-7.62,3.418-7.62,7.62v13.968c0,4.202,3.418,7.622,7.62,7.622h13.971   c4.202,0,7.621-3.42,7.621-7.622V51.707C29.212,47.506,25.793,44.087,21.591,44.087z M24.843,65.675   c0,1.795-1.458,3.255-3.251,3.255H7.62c-1.792,0-3.251-1.46-3.251-3.255V51.707c0-1.792,1.458-3.251,3.251-3.251h13.971   c1.793,0,3.251,1.459,3.251,3.251V65.675z"/><path d="M20.526,52.836c0.107-0.572-0.014-1.152-0.344-1.636c-0.661-0.961-2.079-1.229-3.038-0.566l-9.129,6.255   c-0.592,0.408-0.947,1.083-0.947,1.803c0,0.721,0.354,1.394,0.949,1.801l9.129,6.262c0.367,0.248,0.792,0.379,1.23,0.379   c0.721,0,1.394-0.354,1.805-0.95c0.33-0.483,0.451-1.063,0.344-1.636c-0.107-0.576-0.433-1.074-0.913-1.402l-6.498-4.453   l6.496-4.454C20.093,53.909,20.419,53.411,20.526,52.836z"/><path d="M52.138,44.087H38.168c-4.204,0-7.623,3.418-7.623,7.62v13.968c0,4.202,3.418,7.622,7.623,7.622h13.969   c4.202,0,7.622-3.42,7.622-7.622V51.707C59.76,47.506,56.34,44.087,52.138,44.087z M55.391,65.675c0,1.795-1.46,3.255-3.253,3.255   H38.168c-1.795,0-3.253-1.46-3.253-3.255V51.707c0-1.792,1.458-3.251,3.253-3.251h13.969c1.793,0,3.253,1.459,3.253,3.251V65.675z"/><path d="M52.644,53.115c-0.963-0.662-2.381-0.391-3.038,0.568l-4.452,6.496l-4.456-6.498c-0.659-0.959-2.075-1.227-3.036-0.568   c-0.483,0.33-0.806,0.828-0.915,1.402c-0.106,0.572,0.016,1.154,0.347,1.638l6.254,9.122c0.407,0.599,1.082,0.955,1.805,0.955   c0.721,0,1.396-0.356,1.801-0.952l6.256-9.127C53.89,55.158,53.636,53.794,52.644,53.115z"/><path d="M82.904,44.087h-13.97c-4.201,0-7.62,3.418-7.62,7.62v13.968c0,4.202,3.419,7.622,7.62,7.622h13.97   c4.202,0,7.622-3.42,7.622-7.622V51.707C90.526,47.506,87.106,44.087,82.904,44.087z M86.157,65.675   c0,1.795-1.46,3.255-3.253,3.255h-13.97c-1.792,0-3.253-1.46-3.253-3.255V51.707c0-1.792,1.461-3.251,3.253-3.251h13.97   c1.793,0,3.253,1.459,3.253,3.251V65.675z"/><path d="M82.51,56.889l-9.127-6.255c-0.965-0.663-2.383-0.395-3.04,0.568c-0.328,0.479-0.451,1.062-0.345,1.634   c0.107,0.573,0.432,1.071,0.913,1.399l6.5,4.456l-6.5,4.453c-0.481,0.33-0.806,0.828-0.913,1.402   c-0.106,0.572,0.017,1.154,0.347,1.638c0.409,0.594,1.084,0.948,1.803,0.948c0.439,0,0.866-0.131,1.233-0.383l9.127-6.256   c0.596-0.409,0.952-1.082,0.952-1.803C83.46,57.972,83.104,57.297,82.51,56.889z"/><path d="M52.138,13.659H38.168c-4.204,0-7.623,3.418-7.623,7.62V35.25c0,4.204,3.418,7.622,7.623,7.622h13.969   c4.202,0,7.622-3.418,7.622-7.622V21.279C59.76,17.077,56.34,13.659,52.138,13.659z M55.391,35.25c0,1.795-1.46,3.253-3.253,3.253   H38.168c-1.795,0-3.253-1.458-3.253-3.253V21.279c0-1.793,1.458-3.251,3.253-3.251h13.969c1.793,0,3.253,1.458,3.253,3.251V35.25z"/><path d="M46.957,21.682c-0.816-1.199-2.798-1.192-3.606-0.002l-6.256,9.125c-0.331,0.481-0.453,1.062-0.347,1.636   c0.107,0.572,0.431,1.07,0.913,1.4c0.955,0.653,2.373,0.395,3.038-0.564l4.456-6.5l4.454,6.5c0.407,0.594,1.08,0.949,1.803,0.949   c0.441,0,0.868-0.133,1.235-0.385c0.99-0.681,1.244-2.042,0.565-3.033L46.957,21.682z"/></g></svg>